<?xml version="1.0" encoding="UTF-8" standalone="no"?>
<svg
   viewBox="0 0 512 512"
   version="1.1"
   id="svg1"
   sodipodi:docname="grass.svg"
   inkscape:version="1.4.2 (ebf0e940, 2025-05-08)"
   xmlns:inkscape="http://www.inkscape.org/namespaces/inkscape"
   xmlns:sodipodi="http://sodipodi.sourceforge.net/DTD/sodipodi-0.dtd"
   xmlns="http://www.w3.org/2000/svg"
   xmlns:svg="http://www.w3.org/2000/svg">
  <defs
     id="defs1" />
  <sodipodi:namedview
     id="namedview1"
     pagecolor="#ffffff"
     bordercolor="#000000"
     borderopacity="0.25"
     inkscape:showpageshadow="2"
     inkscape:pageopacity="0.0"
     inkscape:pagecheckerboard="0"
     inkscape:deskcolor="#d1d1d1"
     inkscape:zoom="1.1490485"
     inkscape:cx="242.37445"
     inkscape:cy="328.53269"
     inkscape:window-width="1512"
     inkscape:window-height="798"
     inkscape:window-x="0"
     inkscape:window-y="38"
     inkscape:window-maximized="0"
     inkscape:current-layer="svg1" />
  <a
     id="a3"
     transform="translate(11.313709,67.882251)">
    <path
       style="fill:#000000"
       d="m 94.929027,427.24734 c 0,0 -10.389798,1.197 -13.076146,-13.96908 C 79.485588,399.91344 73.988135,358.98917 71.743546,346.42842 68.808925,330.00624 65.32203,310.34331 61.040693,293.68026 55.50538,272.13671 48.898536,253.51678 37.182507,220.08152 32.336319,206.25144 27.274611,195.26397 18.396715,180.78438 4.9110823,158.78971 -6.4810743,141.79647 -6.4810743,141.79647 c 0,0 49.3624883,27.30508 71.5745593,47.82946 25.958264,23.98593 31.164239,27.4451 46.135735,48.88091 14.03528,20.09534 34.55,53.43529 48.38611,79.16595 11.38341,21.16946 34.49671,40.87953 53.10441,72.38841"
       id="path3"
       sodipodi:nodetypes="cssssscsssc"
       inkscape:label="blade-left" />
    <path
       style="display:inline;fill:#000000"
       d="m 147.32277,409.34316 c 0,0 -3.90072,-88.70112 -7.89102,-110.75541 -3.72336,-20.57906 -8.36167,-43.14795 -13.49773,-67.18777 C 121.5063,210.67553 113.36189,189.3096 104.94276,164.44384 99.17536,147.40997 86.225428,122.21555 78.86031,104.91892 73.119044,91.435815 62.832202,70.727869 54.701886,55.815675 42.351837,33.163874 23.115159,3.4717694 23.115159,3.4717694 c 0,0 83.773891,69.4625876 104.913841,91.0896256 24.70533,25.274555 48.58905,64.475005 58.83431,88.530675 12.55311,29.47445 102.29915,203.39201 107.58053,232.12546"
       id="path3-5"
       sodipodi:nodetypes="cssssscssc"
       inkscape:label="blade-center-left" />
    <path
       style="display:inline;fill:#000000"
       d="m 192.08594,249.177 c 1.74207,-20.8405 3.11668,-43.84003 4.39212,-68.38928 1.09956,-21.16362 -1.22397,-43.91084 -2.90501,-70.10935 -1.15157,-17.946853 -7.12306,-45.638021 -9.74952,-64.253063 -2.04736,-14.510844 -6.61067,-37.1783178 -10.59462,-53.689032 -6.05169,-25.079969 -11.01047,-57.754794 -11.01047,-57.754794 0,0 64.50432,94.894741 79.31085,121.265041 17.30375,30.817795 24.50919,58.793428 28.16395,84.683238 4.47806,31.72179 15.97126,81.81124 13.61868,110.93116 -2.7602,34.16549 -30.85066,125.30987 -36.03476,164.98451"
       id="path3-5-9"
       sodipodi:nodetypes="csssscsssc"
       inkscape:label="blade-center" />
    <path
       style="display:inline;fill:#000000"
       d="m 260.87684,424.8777 c 0,0 78.62951,-134.92106 83.87527,-156.71086 4.89486,-20.33227 7.09935,-46.74993 13.60261,-70.45647 5.60637,-20.43713 15.68384,-43.95722 25.51207,-68.30047 6.73267,-16.67594 21.77708,-44.63956 30.11989,-61.486386 6.50339,-13.132491 21.43552,-33.384008 30.40582,-47.806529 13.62601,-21.9079833 21.97113,-44.445763 21.97113,-44.445763 0,0 -79.48609,52.703019 -101.82895,73.084941 -26.11113,23.819443 -55.39169,66.125067 -66.99667,89.555047 -14.21915,28.70785 -33.71764,70.5234 -40.63455,98.90757"
       id="path3-5-3"
       sodipodi:nodetypes="cssssscssc"
       inkscape:label="blade-center-right" />
    <path
       style="fill:#000000"
       d="m 375.06904,428.83633 c 0,0 16.94604,-7.48719 18.64099,-28.83937 1.5262,-19.22638 4.00697,-37.75244 8.28504,-56.84156 4.2466,-18.94864 9.66576,-39.99557 15.57315,-59.71043 8.45274,-28.20952 14.30734,-45.57384 21.24733,-64.8959 6.07671,-16.91855 19.48104,-37.87182 27.48865,-52.35141 12.48584,-22.57723 33.67263,-59.00448 33.67263,-59.00448 0,0 -55.54647,28.17538 -77.75854,48.69976 -25.95827,23.98593 -52.92138,50.94279 -67.89288,72.3786 -14.03528,20.09534 -34.54799,46.10261 -48.3861,69.59281 -16.18438,27.473 -38.19543,69.45681 -51.58142,107.05769"
       id="path3-2"
       sodipodi:nodetypes="cssssscsssc"
       inkscape:label="blade-right" />
  </a>
  <ellipse
     style="fill:#000000"
     id="path4"
     cx="245.85559"
     cy="482.42233"
     rx="151.86478"
     ry="39.59798"
     inkscape:label="circle negative" />
</svg>
