<?xml version="1.0" encoding="UTF-8" standalone="no"?>
<svg
   viewBox="0 0 512 512"
   version="1.1"
   id="svg1"
   sodipodi:docname="grass.svg"
   inkscape:version="1.3 (0e150ed6c4, 2023-07-21)"
   xmlns:inkscape="http://www.inkscape.org/namespaces/inkscape"
   xmlns:sodipodi="http://sodipodi.sourceforge.net/DTD/sodipodi-0.dtd"
   xmlns="http://www.w3.org/2000/svg"
   xmlns:svg="http://www.w3.org/2000/svg">
  <defs
     id="defs1" />
  <sodipodi:namedview
     id="namedview1"
     pagecolor="#ffffff"
     bordercolor="#000000"
     borderopacity="0.25"
     inkscape:showpageshadow="2"
     inkscape:pageopacity="0.0"
     inkscape:pagecheckerboard="0"
     inkscape:deskcolor="#d1d1d1"
     inkscape:zoom="1.625"
     inkscape:cx="244.30769"
     inkscape:cy="180.61538"
     inkscape:window-width="1920"
     inkscape:window-height="1017"
     inkscape:window-x="1912"
     inkscape:window-y="1072"
     inkscape:window-maximized="1"
     inkscape:current-layer="svg1" />
  <a
     id="a3"
     transform="translate(11.313709,67.882251)">
    <path
       id="path3"
       style="fill:#000000"
       inkscape:label="blade-left"
       d="M 156.67848 -65.01897 C 174.73607 -7.997326 187.58109 51.111436 193.57301 110.6783 C 196.52009 139.97574 197.13967 169.25225 195.46559 198.60408 C 179.34145 168.18301 155.89952 134.51372 124.33668 95.176343 C 105.4103 71.588013 23.115978 3.4712646 23.115979 3.4712646 C 55.665304 54.073417 83.185601 108.29094 104.94215 164.44392 C 118.83684 200.30568 127.44893 237.4528 134.89137 275.01619 C 115.98202 240.45265 93.928131 216.14894 65.092541 189.62556 C 42.88058 169.10128 -6.4816778 141.79744 -6.4816777 141.79744 C 26.974357 187.06904 46.707566 239.67856 61.039807 293.68025 C 71.200155 333.22454 79.004702 397.20143 81.852307 413.27791 C 83.196382 420.86603 86.468311 424.35678 89.403088 425.95173 A 151.86478 39.59798 0 0 0 234.54176 454.13728 A 151.86478 39.59798 0 0 0 383.0691 422.48494 C 387.36927 417.93121 392.107 410.70105 393.70973 399.99666 C 404.35815 328.87741 416.77507 280.60009 429.39528 245.01619 C 440.35074 214.12614 447.38165 197.71359 499.97731 107.19392 C 435.43204 138.87221 390.26371 180.39591 347.59254 237.1158 C 359.54643 189.27458 375.57646 142.82921 396.47731 98.115796 C 417.50517 54.704633 445.59901 15.122309 473.13356 -24.329517 C 473.13356 -24.329517 386.26149 33.913622 363.91871 54.295483 C 323.58837 91.461688 298.12084 134.08 276.36403 183.60212 C 268.70863 141.09315 255.05708 89.2849 235.99098 51.938062 C 222.23994 25.002436 156.67848 -65.01897 156.67848 -65.01897 z " />
  </a>
</svg>
