<?xml version="1.0" encoding="UTF-8" standalone="no"?>
<svg
   viewBox="0 0 610.82471 547.10229"
   version="1.1"
   id="svg1"
   sodipodi:docname="house-modified.svg"
   inkscape:version="1.4.2 (ebf0e940, 2025-05-08)"
   width="610.82471"
   height="547.10229"
   xmlns:inkscape="http://www.inkscape.org/namespaces/inkscape"
   xmlns:sodipodi="http://sodipodi.sourceforge.net/DTD/sodipodi-0.dtd"
   xmlns="http://www.w3.org/2000/svg"
   xmlns:svg="http://www.w3.org/2000/svg">
  <defs
     id="defs1" />
  <sodipodi:namedview
     id="namedview1"
     pagecolor="#ffffff"
     bordercolor="#000000"
     borderopacity="0.25"
     inkscape:showpageshadow="2"
     inkscape:pageopacity="0.0"
     inkscape:pagecheckerboard="0"
     inkscape:deskcolor="#d1d1d1"
     inkscape:zoom="0.93169966"
     inkscape:cx="294.08619"
     inkscape:cy="264.03358"
     inkscape:window-width="1512"
     inkscape:window-height="833"
     inkscape:window-x="0"
     inkscape:window-y="34"
     inkscape:window-maximized="0"
     inkscape:current-layer="svg1"
     showguides="false" />
  <!--!Font Awesome Free 6.7.2 by @fontawesome - https://fontawesome.com License - https://fontawesome.com/license/free Copyright 2025 Fonticons, Inc.-->
  <path
     d="m 593.2,273 c 0,18 -15,32.1 -32,32.1 h -32 c 0.90612,61.49717 0.2,123.03562 0.2,184.5 0,22.1 -17.9,40 -40,40 -26.66309,0.0183 -53.33079,-0.0782 -80,-0.1 -22.1,0 -40,-17.9 -40,-40 v -88 c 0,-17.7 -14.3,-32 -32,-32 h -64 c -17.7,0 -32,14.3 -32,32 v 88 c 0,22.1 -17.9,40 -40,40 h -80 c -22.1,0 -40,-17.9 -40,-40 0,-282.41299 0.1,25.08715 0.1,-184.5 h -32 c -18,0 -32,-14 -32,-32.1 0,-9 3,-17 10,-24 L 283.8,25.5 c 7,-7 15,-8 22,-8 7,0 15,2 21,7 L 582.2,249 c 8,7 12,15 11,24 z"
     id="path1"
     sodipodi:nodetypes="cscsssssssssssscssccsccc"
     style="fill:none;fill-opacity:1;stroke:#000000;stroke-width:35;stroke-dasharray:none;stroke-opacity:1" />
  <path
     d="m 579.94384,271.04837 c 0,16.42025 -11.68354,21.28278 -27.19156,21.28278 h -37.19156 c 0.8266,56.09995 0.18245,138.23756 0.18245,194.3076 0,20.16042 -16.32903,32.48945 -36.48945,32.48945 -24.32304,0.0167 -38.65028,-0.0713 -62.9789,-0.0912 -20.16043,0 -34.48946,-12.32902 -34.48946,-32.48945 v -92.27679 c 0,-16.14658 -19.04497,-35.19156 -35.19156,-35.19156 h -82.38312 c -16.14658,0 -35.19156,19.04498 -35.19156,35.19156 v 92.27679 c 0,20.16043 -14.32903,32.48945 -34.48945,32.48945 h -62.97891 c -20.16042,0 -36.489447,-12.32902 -36.489447,-32.48945 0,-257.62737 0.09122,-3.11459 0.09122,-194.30759 H 57.960976 c -16.420253,0 -27.191561,-4.77131 -27.191561,-21.28278 0,-8.21013 10.736709,-15.50802 17.122363,-21.89368 L 285.69794,41.26989 c 6.38565,-6.385654 13.68354,-7.29789 20.0692,-7.29789 6.38565,0 13.68354,1.824473 19.15696,6.385654 L 561.90924,249.1547 c 7.29789,6.38565 18.94684,13.68354 18.0346,21.89367 z"
     id="path1-0"
     sodipodi:nodetypes="cscsssssssssssscssccsccc"
     style="display:none;fill:#ffffff;stroke-width:0.912236" />
</svg>
